<mxfile host="app.diagrams.net" modified="2023-08-11T14:13:04.778Z" agent="Mozilla/5.0 (Windows NT 10.0; Win64; x64) AppleWebKit/537.36 (KHTML, like Gecko) Chrome/115.0.0.0 Safari/537.36" etag="yXPmAQpckIlntDDjK-LS" version="21.6.8" type="github">
  <diagram name="Page-1" id="dU8d2guDdDB6ww6qbpj1">
    <mxGraphModel dx="1366" dy="714" grid="1" gridSize="10" guides="1" tooltips="1" connect="1" arrows="1" fold="1" page="1" pageScale="1" pageWidth="827" pageHeight="1169" math="0" shadow="0">
      <root>
        <mxCell id="0" />
        <mxCell id="1" parent="0" />
        <mxCell id="42FLm7C1HlMIVMgs-tP9-1" value="PR Trigger" style="rounded=0;whiteSpace=wrap;html=1;" vertex="1" parent="1">
          <mxGeometry x="360" y="79.99999999999966" width="120" height="60" as="geometry" />
        </mxCell>
        <mxCell id="42FLm7C1HlMIVMgs-tP9-35" style="rounded=0;orthogonalLoop=1;jettySize=auto;html=1;entryX=0;entryY=0.75;entryDx=0;entryDy=0;edgeStyle=orthogonalEdgeStyle;flowAnimation=1;" edge="1" parent="1" source="42FLm7C1HlMIVMgs-tP9-4" target="42FLm7C1HlMIVMgs-tP9-38">
          <mxGeometry relative="1" as="geometry">
            <mxPoint x="620" y="210.0000000000001" as="targetPoint" />
          </mxGeometry>
        </mxCell>
        <mxCell id="42FLm7C1HlMIVMgs-tP9-36" value="my-app:master" style="edgeLabel;html=1;align=center;verticalAlign=middle;resizable=0;points=[];" vertex="1" connectable="0" parent="42FLm7C1HlMIVMgs-tP9-35">
          <mxGeometry x="-0.0535" y="-1" relative="1" as="geometry">
            <mxPoint y="-41" as="offset" />
          </mxGeometry>
        </mxCell>
        <mxCell id="42FLm7C1HlMIVMgs-tP9-61" value="push" style="edgeLabel;html=1;align=center;verticalAlign=middle;resizable=0;points=[];" vertex="1" connectable="0" parent="42FLm7C1HlMIVMgs-tP9-35">
          <mxGeometry x="-0.8101" y="2" relative="1" as="geometry">
            <mxPoint x="13" y="-8" as="offset" />
          </mxGeometry>
        </mxCell>
        <mxCell id="42FLm7C1HlMIVMgs-tP9-4" value="Master Trigger" style="rounded=0;whiteSpace=wrap;html=1;" vertex="1" parent="1">
          <mxGeometry x="360" y="209.99999999999966" width="120" height="60" as="geometry" />
        </mxCell>
        <mxCell id="42FLm7C1HlMIVMgs-tP9-49" style="edgeStyle=orthogonalEdgeStyle;rounded=0;orthogonalLoop=1;jettySize=auto;html=1;entryX=0;entryY=0.528;entryDx=0;entryDy=0;entryPerimeter=0;exitX=1;exitY=0.75;exitDx=0;exitDy=0;" edge="1" parent="1" source="42FLm7C1HlMIVMgs-tP9-6" target="42FLm7C1HlMIVMgs-tP9-44">
          <mxGeometry relative="1" as="geometry">
            <mxPoint x="380" y="440" as="targetPoint" />
          </mxGeometry>
        </mxCell>
        <mxCell id="42FLm7C1HlMIVMgs-tP9-50" value="Create" style="edgeLabel;html=1;align=center;verticalAlign=middle;resizable=0;points=[];" vertex="1" connectable="0" parent="42FLm7C1HlMIVMgs-tP9-49">
          <mxGeometry x="0.0877" y="-1" relative="1" as="geometry">
            <mxPoint as="offset" />
          </mxGeometry>
        </mxCell>
        <mxCell id="42FLm7C1HlMIVMgs-tP9-54" style="edgeStyle=orthogonalEdgeStyle;rounded=0;orthogonalLoop=1;jettySize=auto;html=1;entryX=0;entryY=0.5;entryDx=0;entryDy=0;flowAnimation=1;" edge="1" parent="1" source="42FLm7C1HlMIVMgs-tP9-6" target="42FLm7C1HlMIVMgs-tP9-41">
          <mxGeometry relative="1" as="geometry" />
        </mxCell>
        <mxCell id="42FLm7C1HlMIVMgs-tP9-55" value="my-app:v1.0.1" style="edgeLabel;html=1;align=center;verticalAlign=middle;resizable=0;points=[];" vertex="1" connectable="0" parent="42FLm7C1HlMIVMgs-tP9-54">
          <mxGeometry x="0.3963" relative="1" as="geometry">
            <mxPoint x="23" as="offset" />
          </mxGeometry>
        </mxCell>
        <mxCell id="42FLm7C1HlMIVMgs-tP9-63" value="push" style="edgeLabel;html=1;align=center;verticalAlign=middle;resizable=0;points=[];" vertex="1" connectable="0" parent="42FLm7C1HlMIVMgs-tP9-54">
          <mxGeometry x="-0.5543" y="-3" relative="1" as="geometry">
            <mxPoint x="6" y="7" as="offset" />
          </mxGeometry>
        </mxCell>
        <mxCell id="42FLm7C1HlMIVMgs-tP9-6" value="Release Build" style="rounded=0;whiteSpace=wrap;html=1;" vertex="1" parent="1">
          <mxGeometry x="200.00000000000023" y="359.99999999999966" width="120" height="60" as="geometry" />
        </mxCell>
        <mxCell id="42FLm7C1HlMIVMgs-tP9-18" value="&lt;h1&gt;Docker Image Flow&lt;/h1&gt;" style="text;html=1;strokeColor=none;fillColor=none;spacing=5;spacingTop=-20;whiteSpace=wrap;overflow=hidden;rounded=0;" vertex="1" parent="1">
          <mxGeometry x="10" y="10" width="450" height="40" as="geometry" />
        </mxCell>
        <mxCell id="42FLm7C1HlMIVMgs-tP9-45" style="edgeStyle=orthogonalEdgeStyle;rounded=0;orthogonalLoop=1;jettySize=auto;html=1;entryX=0;entryY=0.5;entryDx=0;entryDy=0;" edge="1" parent="1" source="42FLm7C1HlMIVMgs-tP9-25" target="42FLm7C1HlMIVMgs-tP9-1">
          <mxGeometry relative="1" as="geometry" />
        </mxCell>
        <mxCell id="42FLm7C1HlMIVMgs-tP9-25" value="Feature Branch" style="image;aspect=fixed;html=1;points=[];align=center;fontSize=12;image=img/lib/azure2/general/Branch.svg;" vertex="1" parent="1">
          <mxGeometry x="190" y="74" width="72" height="72" as="geometry" />
        </mxCell>
        <mxCell id="42FLm7C1HlMIVMgs-tP9-32" value="" style="endArrow=classic;html=1;rounded=0;exitX=1;exitY=0.5;exitDx=0;exitDy=0;entryX=0;entryY=0.25;entryDx=0;entryDy=0;edgeStyle=orthogonalEdgeStyle;flowAnimation=1;" edge="1" parent="1" source="42FLm7C1HlMIVMgs-tP9-1" target="42FLm7C1HlMIVMgs-tP9-38">
          <mxGeometry relative="1" as="geometry">
            <mxPoint x="500" y="150" as="sourcePoint" />
            <mxPoint x="660" y="150" as="targetPoint" />
          </mxGeometry>
        </mxCell>
        <mxCell id="42FLm7C1HlMIVMgs-tP9-33" value="my-app:my-branch" style="edgeLabel;resizable=0;html=1;align=center;verticalAlign=middle;" connectable="0" vertex="1" parent="42FLm7C1HlMIVMgs-tP9-32">
          <mxGeometry relative="1" as="geometry">
            <mxPoint y="26" as="offset" />
          </mxGeometry>
        </mxCell>
        <mxCell id="42FLm7C1HlMIVMgs-tP9-34" value="push" style="edgeLabel;resizable=0;html=1;align=left;verticalAlign=bottom;" connectable="0" vertex="1" parent="42FLm7C1HlMIVMgs-tP9-32">
          <mxGeometry x="-1" relative="1" as="geometry">
            <mxPoint x="10" as="offset" />
          </mxGeometry>
        </mxCell>
        <mxCell id="42FLm7C1HlMIVMgs-tP9-39" value="" style="group;snapToPoint=0;" vertex="1" connectable="0" parent="1">
          <mxGeometry x="610" y="110" width="120" height="110" as="geometry" />
        </mxCell>
        <mxCell id="42FLm7C1HlMIVMgs-tP9-38" value="" style="rounded=0;whiteSpace=wrap;html=1;" vertex="1" parent="42FLm7C1HlMIVMgs-tP9-39">
          <mxGeometry width="120" height="110" as="geometry" />
        </mxCell>
        <mxCell id="42FLm7C1HlMIVMgs-tP9-21" value="Dev&lt;br style=&quot;border-color: var(--border-color);&quot;&gt;Container Registry" style="image;aspect=fixed;html=1;points=[];align=center;fontSize=12;image=img/lib/azure2/containers/Container_Registries.svg;snapToPoint=1;connectable=1;container=0;" vertex="1" parent="42FLm7C1HlMIVMgs-tP9-39">
          <mxGeometry x="26.560000000000002" y="10" width="66.89" height="60" as="geometry" />
        </mxCell>
        <mxCell id="42FLm7C1HlMIVMgs-tP9-40" value="" style="group" vertex="1" connectable="0" parent="1">
          <mxGeometry x="580" y="410" width="120" height="110" as="geometry" />
        </mxCell>
        <mxCell id="42FLm7C1HlMIVMgs-tP9-41" value="" style="rounded=0;whiteSpace=wrap;html=1;" vertex="1" parent="42FLm7C1HlMIVMgs-tP9-40">
          <mxGeometry width="120" height="110" as="geometry" />
        </mxCell>
        <mxCell id="42FLm7C1HlMIVMgs-tP9-42" value="Staging / Prod&lt;br style=&quot;border-color: var(--border-color);&quot;&gt;Container Registry" style="image;aspect=fixed;html=1;points=[];align=center;fontSize=12;image=img/lib/azure2/containers/Container_Registries.svg;snapToPoint=1;connectable=1;container=0;" vertex="1" parent="42FLm7C1HlMIVMgs-tP9-40">
          <mxGeometry x="26.560000000000002" y="10" width="66.89" height="60" as="geometry" />
        </mxCell>
        <mxCell id="42FLm7C1HlMIVMgs-tP9-47" style="edgeStyle=orthogonalEdgeStyle;rounded=0;orthogonalLoop=1;jettySize=auto;html=1;entryX=0;entryY=0.5;entryDx=0;entryDy=0;" edge="1" parent="1" source="42FLm7C1HlMIVMgs-tP9-43" target="42FLm7C1HlMIVMgs-tP9-4">
          <mxGeometry relative="1" as="geometry" />
        </mxCell>
        <mxCell id="42FLm7C1HlMIVMgs-tP9-43" value="Master Branch" style="image;aspect=fixed;html=1;points=[];align=center;fontSize=12;image=img/lib/azure2/general/Branch.svg;" vertex="1" parent="1">
          <mxGeometry x="199" y="204" width="72" height="72" as="geometry" />
        </mxCell>
        <mxCell id="42FLm7C1HlMIVMgs-tP9-44" value="Release Branch / Tag" style="image;aspect=fixed;html=1;points=[];align=center;fontSize=12;image=img/lib/azure2/general/Branch.svg;" vertex="1" parent="1">
          <mxGeometry x="413" y="510" width="72" height="72" as="geometry" />
        </mxCell>
        <mxCell id="42FLm7C1HlMIVMgs-tP9-57" style="edgeStyle=orthogonalEdgeStyle;rounded=0;orthogonalLoop=1;jettySize=auto;html=1;entryX=0;entryY=0.5;entryDx=0;entryDy=0;exitX=0.5;exitY=1;exitDx=0;exitDy=0;" edge="1" parent="1" source="42FLm7C1HlMIVMgs-tP9-64" target="42FLm7C1HlMIVMgs-tP9-6">
          <mxGeometry relative="1" as="geometry">
            <mxPoint x="50" y="320" as="sourcePoint" />
          </mxGeometry>
        </mxCell>
        <mxCell id="42FLm7C1HlMIVMgs-tP9-58" value="Creates" style="edgeLabel;html=1;align=center;verticalAlign=middle;resizable=0;points=[];" vertex="1" connectable="0" parent="42FLm7C1HlMIVMgs-tP9-57">
          <mxGeometry x="-0.0109" y="-2" relative="1" as="geometry">
            <mxPoint x="-1" y="-116" as="offset" />
          </mxGeometry>
        </mxCell>
        <mxCell id="42FLm7C1HlMIVMgs-tP9-59" style="edgeStyle=orthogonalEdgeStyle;rounded=0;orthogonalLoop=1;jettySize=auto;html=1;exitX=0.25;exitY=1;exitDx=0;exitDy=0;entryX=1;entryY=0.25;entryDx=0;entryDy=0;flowAnimation=1;" edge="1" parent="1" source="42FLm7C1HlMIVMgs-tP9-38" target="42FLm7C1HlMIVMgs-tP9-6">
          <mxGeometry relative="1" as="geometry" />
        </mxCell>
        <mxCell id="42FLm7C1HlMIVMgs-tP9-60" value="my-app:master" style="edgeLabel;html=1;align=center;verticalAlign=middle;resizable=0;points=[];" vertex="1" connectable="0" parent="42FLm7C1HlMIVMgs-tP9-59">
          <mxGeometry x="-0.3271" relative="1" as="geometry">
            <mxPoint as="offset" />
          </mxGeometry>
        </mxCell>
        <mxCell id="42FLm7C1HlMIVMgs-tP9-62" value="pull" style="edgeLabel;html=1;align=center;verticalAlign=middle;resizable=0;points=[];" vertex="1" connectable="0" parent="42FLm7C1HlMIVMgs-tP9-59">
          <mxGeometry x="0.6512" y="-2" relative="1" as="geometry">
            <mxPoint x="-25" y="-13" as="offset" />
          </mxGeometry>
        </mxCell>
        <mxCell id="42FLm7C1HlMIVMgs-tP9-66" value="" style="group" vertex="1" connectable="0" parent="1">
          <mxGeometry x="10" y="130" width="70" height="110" as="geometry" />
        </mxCell>
        <mxCell id="42FLm7C1HlMIVMgs-tP9-64" value="" style="rounded=0;whiteSpace=wrap;html=1;" vertex="1" parent="42FLm7C1HlMIVMgs-tP9-66">
          <mxGeometry width="70" height="110" as="geometry" />
        </mxCell>
        <mxCell id="42FLm7C1HlMIVMgs-tP9-56" value="Developer" style="shape=umlActor;verticalLabelPosition=bottom;verticalAlign=top;html=1;outlineConnect=0;" vertex="1" parent="42FLm7C1HlMIVMgs-tP9-66">
          <mxGeometry x="20" y="20" width="30" height="60" as="geometry" />
        </mxCell>
        <mxCell id="42FLm7C1HlMIVMgs-tP9-69" style="edgeStyle=orthogonalEdgeStyle;rounded=0;orthogonalLoop=1;jettySize=auto;html=1;exitX=1;exitY=0.5;exitDx=0;exitDy=0;entryX=-0.03;entryY=0.491;entryDx=0;entryDy=0;entryPerimeter=0;" edge="1" parent="1" source="42FLm7C1HlMIVMgs-tP9-64" target="42FLm7C1HlMIVMgs-tP9-43">
          <mxGeometry relative="1" as="geometry" />
        </mxCell>
        <mxCell id="42FLm7C1HlMIVMgs-tP9-70" value="Merge PR" style="edgeLabel;html=1;align=center;verticalAlign=middle;resizable=0;points=[];" vertex="1" connectable="0" parent="42FLm7C1HlMIVMgs-tP9-69">
          <mxGeometry x="0.2974" relative="1" as="geometry">
            <mxPoint x="-4" y="-14" as="offset" />
          </mxGeometry>
        </mxCell>
        <mxCell id="42FLm7C1HlMIVMgs-tP9-71" style="edgeStyle=orthogonalEdgeStyle;rounded=0;orthogonalLoop=1;jettySize=auto;html=1;exitX=0.75;exitY=0;exitDx=0;exitDy=0;entryX=-0.004;entryY=0.458;entryDx=0;entryDy=0;entryPerimeter=0;" edge="1" parent="1" source="42FLm7C1HlMIVMgs-tP9-64" target="42FLm7C1HlMIVMgs-tP9-25">
          <mxGeometry relative="1" as="geometry" />
        </mxCell>
        <mxCell id="42FLm7C1HlMIVMgs-tP9-72" value="Commit" style="edgeLabel;html=1;align=center;verticalAlign=middle;resizable=0;points=[];" vertex="1" connectable="0" parent="42FLm7C1HlMIVMgs-tP9-71">
          <mxGeometry x="-0.2695" y="1" relative="1" as="geometry">
            <mxPoint x="19" y="4" as="offset" />
          </mxGeometry>
        </mxCell>
      </root>
    </mxGraphModel>
  </diagram>
</mxfile>
